<svg xmlns="http://www.w3.org/2000/svg" viewBox="0 0 100 100">
  <defs>
    <clipPath id="c"><circle cx="50" cy="50" r="50"/></clipPath>
  </defs>
  <g clip-path="url(#c)">
    <!-- Leaf -->
    <path d="M55 5 C55 5 78 18 82 45 C86 72 65 60 55 50 C45 40 30 28 55 5Z" fill="#16a34a"/>
    <path d="M58 12 C58 12 62 30 58 44" stroke="#fff" stroke-width="2" fill="none" stroke-linecap="round"/>
    <path d="M58 25 C58 25 50 32 46 34" stroke="#fff" stroke-width="1.5" fill="none" stroke-linecap="round"/>
    <path d="M58 35 C58 35 52 40 48 41" stroke="#fff" stroke-width="1.5" fill="none" stroke-linecap="round"/>
    <!-- G letter -->
    <path d="M22 52 C22 52 18 88 50 90 C82 92 82 62 82 62 L58 62 L58 70 L70 70 C70 70 70 82 50 82 C30 82 30 58 30 55 C30 48 34 42 42 42 C48 42 52 44 54 47 L62 42 C58 36 50 34 42 34 C28 34 22 44 22 52Z" fill="#16a34a"/>
  </g>
</svg>
